/* XPM */
static char *magick[] = {
/* columns rows colors chars-per-pixel */
"32 19 12 1",
"  c black",
". c #191919",
"X c gray20",
"o c #4c4c4c",
"O c #666667",
"+ c gray50",
"@ c gray60",
"# c #b2b2b2",
"$ c gray80",
"% c gray90",
"& c white",
"* c None",
/* pixels */
"********************************",
"********************************",
"***************@@@@@@@@@@@@@@@@@",
"*************@@+@####@####@###@@",
"***********@+OOO$&&&%&&&%&%&%&%@",
"oXooO@***@OOO@+o#%&&&&%&&&&&&%$@",
"    O$@@OOO@###@O#$%&&&&&&&&$#$@",
"    @&OO+@@####$#@O@$%%&%&$#$$%@",
"    @%@@@@+@##@+@#@@##$%%##%%&&@",
"   .@&@@@@@@@OOoOOOO#&$@#%%$&&%@",
"    +%@@@@@@++@+&$$$%&&&&&%$$%&@",
"    @%@@++@@@@@+&%$%&&&%&&&&$$%@",
"    @&@OOO++++O+&$$&&&%&&&&&&$%@",
". . @%+O@@O+O+@+$#$#$#$$$#$#$##@",
"    O#@********@@@@@@@@@@@@@@@@+",
"    o@**************************",
"+O+O@***************************",
"********************************",
"********************************"
};
